<svg xmlns="http://www.w3.org/2000/svg" viewBox="0 0 335.44 116"><defs><style>.cls-1{fill:#c1272d;}.cls-2{font-size:62.14px;font-family:Aleo-Bold, Aleo;font-weight:700;}.cls-2,.cls-3{fill:#333;}.cls-3{font-size:26.86px;font-family:Aleo-Regular, Aleo;letter-spacing:0.32em;}.cls-4{letter-spacing:0.3em;}.cls-5{letter-spacing:0.32em;}.cls-6,.cls-7{fill:#fff;}.cls-7{stroke:#c1272d;stroke-miterlimit:10;stroke-width:0.5px;}</style></defs><title>Recurso 1</title><g id="Capa_2" data-name="Capa 2"><g id="Capa_1-2" data-name="Capa 1"><path class="cls-1" d="M58,0a58,58,0,1,0,58,58A58.07,58.07,0,0,0,58,0Zm0,114a56,56,0,1,1,56-56A56,56,0,0,1,58,114Z"/><circle class="cls-1" cx="58" cy="58" r="54"/><text class="cls-2" transform="translate(126.04 70.03)">SELAH</text><text class="cls-3" transform="translate(126.1 97.89)">SEMI<tspan class="cls-4" x="97.26" y="0">N</tspan><tspan class="cls-5" x="126.25" y="0">ARY</tspan></text><path class="cls-6" d="M53.35,101.68,54,102h2.47l-.17-1.08c-.17-1.06-.22-1.83-.3-2.91a42.38,42.38,0,0,0-6.82-18.93C47.24,76.09,43.39,69.6,44,63,34,83,43.19,95.45,53.35,101.68Z"/><path class="cls-6" d="M51.88,102.41l-1.79-.14c-3.71-.28-21.15-2.52-25.65-27.58C20,50,38,38,47.54,9.74,48,10,49.79,15,50,16c.71,3.43,1.35,7.41.25,17.92a56.59,56.59,0,0,1-1.12,6.51c0,.11-14.08.54-14.08.54a2.75,2.75,0,0,0-2.5,2.49v3.13a2.75,2.75,0,0,0,2.5,2.49s11.86-.09,11.87,0C47,51,46,53,45,55,35,72,28,90,51.88,102.41Z"/><path class="cls-7" d="M59.3,17A1.35,1.35,0,0,0,58,18.33L57,41,35.24,42.06a1.81,1.81,0,0,0-1.82,1.81V46a1.81,1.81,0,0,0,1.8,1.81L57,48.34l.63,34.48c.11,7,.31,17.28.42,19.25a35.1,35.1,0,0,0,6-.78l.83-52.95,21.74-.49A1.81,1.81,0,0,0,88.41,46V43.87a1.81,1.81,0,0,0-1.81-1.81L64.6,41,64,18.34A1.35,1.35,0,0,0,62.66,17Z"/></g></g></svg>